<svg width="134" height="100" viewBox="0 0 134 100" fill="none" xmlns="http://www.w3.org/2000/svg">
<path d="M111.111 22.2222C117.248 22.2222 122.222 17.2476 122.222 11.1111C122.222 4.97461 117.248 0 111.111 0C104.975 0 100 4.97461 100 11.1111C100 17.2476 104.975 22.2222 111.111 22.2222Z" fill="#F68C33"/>
<path d="M130.556 27.7778C129.022 27.7778 127.778 29.0223 127.778 30.5556V69.4445C127.778 74.0389 124.039 77.7778 119.444 77.7778H100V83.3334H111.111V94.4445H102.778C101.244 94.4445 100 95.6889 100 97.2223C100 98.7556 101.244 100 102.778 100H125C126.533 100 127.778 98.7556 127.778 97.2223C127.778 95.6889 126.533 94.4445 125 94.4445H116.667V83.3334H119.444C127.106 83.3334 133.333 77.1056 133.333 69.4445V30.5556C133.333 29.0223 132.089 27.7778 130.556 27.7778Z" fill="#F68C33"/>
<path d="M122.223 66.6667V33.3612C122.223 33.3501 122.223 33.3445 122.223 33.3334C122.223 30.2667 119.74 27.7778 116.667 27.7778H111.112C108.04 27.7778 105.556 30.2667 105.556 33.3334V38.8889V61.1112H94.4451C88.3173 61.1112 83.334 66.0945 83.334 72.2223V88.8889C83.334 91.9612 85.8173 94.4445 88.8895 94.4445C91.9618 94.4445 94.4451 91.9612 94.4451 88.8889V72.2223H116.667C119.74 72.2223 122.223 69.7389 122.223 66.6667Z" fill="#F68C33"/>
<path d="M22.2224 22.2222C28.3589 22.2222 33.3335 17.2476 33.3335 11.1111C33.3335 4.97461 28.3589 0 22.2224 0C16.0859 0 11.1113 4.97461 11.1113 11.1111C11.1113 17.2476 16.0859 22.2222 22.2224 22.2222Z" fill="#F68C33"/>
<path d="M2.77778 27.7778C4.31111 27.7778 5.55556 29.0223 5.55556 30.5556V69.4445C5.55556 74.0389 9.29444 77.7778 13.8889 77.7778H33.3333V83.3334H22.2222V94.4445H30.5556C32.0889 94.4445 33.3333 95.6889 33.3333 97.2223C33.3333 98.7556 32.0889 100 30.5556 100H8.33333C6.8 100 5.55556 98.7556 5.55556 97.2223C5.55556 95.6889 6.8 94.4445 8.33333 94.4445H16.6667V83.3334H13.8889C6.22778 83.3334 0 77.1056 0 69.4445V30.5556C0 29.0223 1.24444 27.7778 2.77778 27.7778Z" fill="#F68C33"/>
<path d="M11.1113 66.6667V33.3612C11.1113 33.3501 11.1113 33.3445 11.1113 33.3334C11.1113 30.2667 13.5947 27.7778 16.6669 27.7778H22.2224C25.2947 27.7778 27.778 30.2667 27.778 33.3334V38.8889V61.1112H38.8891C45.0169 61.1112 50.0002 66.0945 50.0002 72.2223V88.8889C50.0002 91.9612 47.5169 94.4445 44.4447 94.4445C41.3724 94.4445 38.8891 91.9612 38.8891 88.8889V72.2223H16.6669C13.5947 72.2223 11.1113 69.7389 11.1113 66.6667Z" fill="#F68C33"/>
<path d="M72.2224 50H61.1113V94.4444H72.2224V50Z" fill="#F68C33"/>
<path d="M77.7769 97.2221C77.7769 98.7554 76.5325 99.9999 74.9991 99.9999H58.3325C56.7991 99.9999 55.5547 98.7554 55.5547 97.2221C55.5547 95.6888 56.7991 94.4443 58.3325 94.4443H74.9991C76.5325 94.4443 77.7769 95.6888 77.7769 97.2221Z" fill="#F68C33"/>
<path d="M66.6658 22.2222C72.8023 22.2222 77.7769 17.2476 77.7769 11.1111C77.7769 4.97461 72.8023 0 66.6658 0C60.5293 0 55.5547 4.97461 55.5547 11.1111C55.5547 17.2476 60.5293 22.2222 66.6658 22.2222Z" fill="#F68C33"/>
<path d="M83.3333 33.3334C83.3333 36.4001 80.85 38.8889 77.7778 38.8889H55.5556C52.4889 38.8889 50 36.4001 50 33.3334C50 30.2667 52.4889 27.7778 55.5556 27.7778H77.7778C80.85 27.7778 83.3333 30.2667 83.3333 33.3334Z" fill="#F68C33"/>
<path d="M83.3333 33.3335H50V38.8891H83.3333V33.3335Z" fill="#F68C33"/>
<path d="M100.001 44.4443H33.334V55.5554H100.001V44.4443Z" fill="#F68C33"/>
</svg>
