<svg xmlns="http://www.w3.org/2000/svg" xmlns:xlink="http://www.w3.org/1999/xlink" width="99.761" height="99.761" viewBox="0 0 99.761 99.761"><defs><style>.a{fill:#fff;}.b{fill:#4d5bed;}.c{fill:#7ac8f4;}.d{filter:url(#a);}</style><filter id="a" x="0" y="0" width="99.761" height="99.761" filterUnits="userSpaceOnUse"><feOffset dy="12" input="SourceAlpha"/><feGaussianBlur stdDeviation="6" result="b"/><feFlood flood-color="#848aa3" flood-opacity="0.102"/><feComposite operator="in" in2="b"/><feComposite in="SourceGraphic"/></filter></defs><g transform="translate(-672 -989)"><g class="d" transform="matrix(1, 0, 0, 1, 672, 989)"><rect class="a" width="63.761" height="63.761" rx="16" transform="translate(18 6)"/></g><g transform="translate(1162.079 915.448)"><path class="b" d="M-437.8,130.433h-.531a1.291,1.291,0,0,1-.8-1.366c.022-2.953.009-5.907.009-8.86v-.4h-.445c-5.441,0-10.882-.011-16.323.012a1.2,1.2,0,0,1-1.3-1.3q.032-10.386,0-20.773a1.205,1.205,0,0,1,1.31-1.319q15.676.027,31.352,0a1.267,1.267,0,0,1,1.332.8v21.774a1.247,1.247,0,0,1-1.33.8c-1.2-.032-2.408-.009-3.612-.009h-.369v.439c0,2.939-.012,5.878.009,8.816a1.291,1.291,0,0,1-.8,1.367h-.531c-.186-.114-.382-.215-.557-.345q-1.354-1.006-2.7-2.025c-.727-.547-.72-.541-1.455,0C-435.631,128.86-436.719,129.644-437.8,130.433Zm-17.243-12.764h14.633a2.418,2.418,0,0,1,.082-.409,1.537,1.537,0,0,0-.482-1.886,1.026,1.026,0,0,1-.009-1.741,1.643,1.643,0,0,0,.5-1.918c-.234-.763.067-1.218.823-1.468a2.686,2.686,0,0,0,1.037-.389,2.672,2.672,0,0,0,.391-1.035c.251-.757.708-1.062,1.465-.831a1.64,1.64,0,0,0,1.919-.491,1.023,1.023,0,0,1,1.74,0,1.64,1.64,0,0,0,1.92.488c.757-.231,1.213.073,1.464.831a2.67,2.67,0,0,0,.391,1.035,2.686,2.686,0,0,0,1.037.389c.756.25,1.058.7.824,1.468a1.523,1.523,0,0,0,.509,1.9.907.907,0,0,1,.153.174,1.046,1.046,0,0,1-.009,1.42c-.235.279-.5.536-.724.821a.494.494,0,0,0-.1.349c.072.431.174.857.263,1.281h1.869V98.585h-29.7Zm26.184-3.137c-.13-.144-.2-.235-.279-.307a1.478,1.478,0,0,1-.492-1.778c.138-.354,0-.485-.343-.553a1.406,1.406,0,0,1-1.206-1.114c-.136-.564-.175-.574-.747-.419a1.331,1.331,0,0,1-1.422-.365c-.143-.149-.308-.277-.471-.421-.174.156-.338.286-.483.435a1.309,1.309,0,0,1-1.362.362c-.616-.157-.639-.145-.807.459a1.315,1.315,0,0,1-1.02,1.012c-.191.047-.374.121-.634.207a1.781,1.781,0,0,1-.64,2.428c.121.135.188.225.27.3a1.478,1.478,0,0,1,.491,1.779c-.139.355.008.485.345.552a1.406,1.406,0,0,1,1.205,1.115c.135.561.174.572.748.417a1.323,1.323,0,0,1,1.42.365c.142.15.308.277.471.422.174-.155.339-.285.483-.435a1.3,1.3,0,0,1,1.361-.362c.617.157.641.145.808-.458a1.315,1.315,0,0,1,1.019-1.013c.191-.047.375-.121.635-.207A1.761,1.761,0,0,1-428.864,114.532Zm-1.78,6.571a8.436,8.436,0,0,1-.957-.206.767.767,0,0,0-.934.241,4.512,4.512,0,0,1-.562.514,1.049,1.049,0,0,1-1.445,0c-.279-.235-.537-.495-.818-.726a.451.451,0,0,0-.319-.1c-.441.077-.876.182-1.307.276v6.1c.094-.064.156-.1.215-.147l2.123-1.59a1.156,1.156,0,0,1,1.652,0q1.062.794,2.123,1.59c.064.048.136.084.231.142Z" transform="translate(0)"/><path class="c" d="M-381.589,162.561q-5.292,0-10.585,0a1.055,1.055,0,0,1-1.006-1.512,1.069,1.069,0,0,1,1.05-.611q4.247.009,8.494,0,6.288,0,12.576,0a1.058,1.058,0,0,1,1.053,1.483,1.062,1.062,0,0,1-1.064.641q-4.347-.009-8.693,0Z" transform="translate(-58.593 -58.683)"/><path class="c" d="M-386.788,211.579c1.769,0,3.539,0,5.308,0a1.057,1.057,0,0,1,1.057.91,1.055,1.055,0,0,1-.764,1.167,1.448,1.448,0,0,1-.392.041q-5.209,0-10.417,0a1.061,1.061,0,0,1-1.162-1.076A1.062,1.062,0,0,1-392,211.579Q-389.392,211.577-386.788,211.579Z" transform="translate(-58.715 -105.574)"/><path class="c" d="M-388.9,264.816c-1.039,0-2.079,0-3.118,0a1.057,1.057,0,0,1-1.139-1.065,1.06,1.06,0,0,1,1.15-1.055q3.1,0,6.2,0a1.057,1.057,0,0,1,1.139,1.066,1.059,1.059,0,0,1-1.149,1.055C-386.843,264.817-387.871,264.816-388.9,264.816Z" transform="translate(-58.716 -152.441)"/><path class="c" d="M-197.266,290.4a2.124,2.124,0,0,1-2.139,2.113,2.125,2.125,0,0,1-2.1-2.148,2.125,2.125,0,0,1,2.123-2.1A2.124,2.124,0,0,1-197.266,290.4Z" transform="translate(-234.434 -175.892)"/></g></g></svg>