<svg width="71" height="100" viewBox="0 0 71 100" fill="none" xmlns="http://www.w3.org/2000/svg">
<path d="M58.798 9.56934C59.3961 10.0478 60.2334 10.4067 60.353 11.0047C60.5922 11.6028 60.5922 12.799 60.1138 13.2775C58.1999 15.3109 56.286 17.3444 54.1329 19.1387C53.5348 19.6171 51.9798 19.4975 51.2621 18.8994C50.7837 18.5406 50.7837 16.866 51.1425 16.2679C52.9368 14.1148 54.9702 12.2009 57.0037 10.287C57.4822 9.92819 58.0803 9.80857 58.798 9.56934Z" fill="#F68C33"/>
<path d="M11.5482 9.4502C12.3855 9.92866 12.9836 10.1679 13.462 10.6464C15.1367 12.321 16.8113 13.9956 18.4859 15.7899C19.4429 16.7468 19.8017 17.943 18.7252 19.0195C17.6486 20.0961 16.4524 19.7372 15.4955 18.7803C13.7013 16.986 11.907 15.3114 10.2324 13.3975C9.75391 12.7995 9.63429 11.7229 9.87352 11.0052C9.99314 10.4071 10.9501 10.0483 11.5482 9.4502Z" fill="#F68C33"/>
<path d="M37.2667 6.22007C37.2667 7.53585 37.2667 8.85163 37.2667 10.0478C37.2667 11.3636 36.549 12.3205 35.1136 12.3205C33.7978 12.3205 33.0801 11.3636 33.0801 10.0478C33.0801 7.41623 33.0801 4.90428 33.0801 2.27272C33.0801 0.956933 33.7978 0 35.2332 0C36.6686 0 37.2667 0.956933 37.2667 2.27272C37.2667 3.70812 37.2667 4.90428 37.2667 6.22007Z" fill="#F68C33"/>
<path d="M64.4185 37.3211C63.1027 37.3211 61.6673 37.3211 60.3515 37.3211C59.0357 37.3211 58.0788 36.6034 58.318 35.2876C58.4376 34.4503 59.3946 33.2541 60.1123 33.2541C62.9831 33.0149 65.8539 33.0149 68.7247 33.2541C69.4424 33.2541 70.3993 34.5699 70.3993 35.2876C70.3993 35.8857 69.3228 36.9623 68.4854 37.2015C67.1697 37.5603 65.7343 37.3211 64.4185 37.3211Z" fill="#F68C33"/>
<path d="M6.04535 37.32C4.72956 37.32 3.41378 37.32 2.21761 37.32C0.901829 37.32 -0.294339 36.6023 0.0645113 35.2865C0.184128 34.4492 1.3803 33.3727 2.098 33.253C4.72956 33.0138 7.36113 33.1334 10.1123 33.1334C11.4281 33.1334 12.2654 33.9707 12.2654 35.4061C12.2654 36.7219 11.4281 37.32 10.1123 37.32C8.67691 37.32 7.36113 37.32 6.04535 37.32Z" fill="#F68C33"/>
<path d="M27.2187 47.3681C27.2187 43.5404 27.2187 39.7127 27.2187 35.7653C27.2187 32.4161 28.7737 29.7845 31.7641 28.3491C32.8406 27.751 34.0368 27.5118 35.233 27.5118C37.2665 27.5118 39.1803 28.4687 40.4961 30.0237C41.9315 31.6984 42.7688 34.2103 42.7688 36.3634C42.7688 40.0715 42.8884 43.8993 42.8884 47.6074C54.7305 40.9088 52.3382 18.5405 35.3526 18.5405C18.4866 18.5405 15.8551 40.3108 27.2187 47.3681Z" fill="#F68C33"/>
<path d="M70.6388 73.3256C70.6388 70.3352 70.6388 67.3448 70.6388 64.474C70.6388 61.962 68.7249 60.0482 66.213 60.0482C63.9402 60.0482 62.0264 61.962 61.9068 64.3544C61.9068 65.1917 61.9068 66.029 61.9068 66.8663V67.1055C61.9068 67.7036 61.7872 68.1821 61.6675 68.4213C61.6675 68.4213 61.4283 68.5409 61.0695 68.6605C60.7106 68.6605 60.2321 68.6606 60.2321 67.2252V65.5505C60.2321 64.1151 60.2321 62.5601 60.2321 61.1247C60.1125 58.7324 58.1986 56.9381 55.8063 56.9381C53.5336 56.9381 51.7393 58.7324 51.6197 61.1247C51.6197 61.8424 51.6197 62.5601 51.6197 63.2778C51.6197 63.6367 51.6197 63.9955 51.6197 64.474C51.6197 65.6701 51.1413 65.6701 50.7824 65.6701C50.4236 65.6701 49.9451 65.6701 49.9451 64.474C49.9451 63.7563 49.9451 63.0386 49.9451 62.3209C49.9451 61.0051 49.9451 59.8089 49.9451 58.4931C49.8255 55.8616 48.0312 53.9477 45.6389 53.9477C43.2466 53.9477 41.4523 55.8616 41.3327 58.6128C41.3327 58.9716 41.3327 59.3305 41.3327 59.6893C41.3327 60.407 41.3327 61.1247 41.2131 61.7228C41.0935 61.962 40.4954 62.4405 40.3758 62.4405C40.2561 62.3209 39.7777 61.962 39.5384 61.4836C39.5384 61.3639 39.5384 61.0051 39.5384 60.7659C39.5384 60.5266 39.5384 60.407 39.5384 60.1678V54.1869C39.5384 48.4453 39.5384 42.5841 39.4188 36.8425C39.4188 35.5267 38.8207 33.9717 37.9834 32.8952C36.9069 31.5794 34.993 31.2205 33.3184 32.0578C31.6437 32.8952 30.6868 34.4502 30.6868 36.3641C30.6868 41.388 30.6868 46.4119 30.6868 51.4358V59.3305C30.6868 63.6367 30.6868 68.0625 30.6868 72.3687C30.6868 74.0433 30.328 74.761 29.371 75.2395C28.4141 75.5983 27.5768 75.3591 26.3806 74.1629L25.4237 73.206C24.1079 71.8902 22.9117 70.694 21.5959 69.3783C20.3998 68.3017 18.9644 67.7036 17.6486 67.9428C16.4524 68.0625 15.3759 68.7802 14.6582 69.8567C13.8209 71.1725 13.2228 73.0864 15.1366 75.4787L18.0074 78.9476C21.7156 83.493 25.5433 88.0384 29.2514 92.5839C32.9595 97.0097 37.6246 99.402 43.1269 99.7609C45.5193 99.8805 47.792 100 49.8255 100C51.6197 100 53.2944 100 54.969 99.8805C64.0599 98.9236 70.6388 91.7466 70.6388 82.1772V78.9476V73.3256Z" fill="#F68C33"/>
</svg>
