<svg width="115" height="100" viewBox="0 0 115 100" fill="none" xmlns="http://www.w3.org/2000/svg">
<path d="M96.5649 79.9795H71.9421C67.2343 79.9795 62.7194 81.8496 59.3905 85.1786C56.0616 88.5075 54.1914 93.0224 54.1914 97.7302V99.9998H114.316V97.7175C114.312 93.0119 112.441 88.5002 109.112 85.1741C105.784 81.8479 101.27 79.9795 96.5649 79.9795Z" fill="#F68C33"/>
<path d="M84.1657 49.3086C86.9242 49.3086 89.6207 50.1266 91.9143 51.6591C94.2078 53.1916 95.9955 55.3698 97.0511 57.9183C98.1067 60.4668 98.3829 63.2711 97.8447 65.9765C97.3066 68.682 95.9783 71.1671 94.0277 73.1176C92.0772 75.0681 89.5921 76.3964 86.8867 76.9346C84.1812 77.4727 81.3769 77.1965 78.8285 76.1409C76.28 75.0853 74.1018 73.2977 72.5692 71.0041C71.0367 68.7105 70.2188 66.014 70.2188 63.2556C70.2188 59.5566 71.6882 56.0091 74.3037 53.3936C76.9193 50.778 80.4668 49.3086 84.1657 49.3086Z" fill="#F68C33"/>
<path d="M42.3608 30.6699H17.7507C13.0429 30.6699 8.52797 32.5401 5.19906 35.869C1.87016 39.1979 0 43.7129 0 48.4206V50.6902H60.1242V48.408C60.1225 46.0769 59.6617 43.769 58.7682 41.616C57.8746 39.463 56.5657 37.5072 54.9162 35.86C53.2667 34.2129 51.3089 32.9068 49.1547 32.0163C47.0004 31.1257 44.6919 30.6683 42.3608 30.6699Z" fill="#F68C33"/>
<path d="M29.9743 0C32.7328 0 35.4293 0.817976 37.7229 2.35049C40.0164 3.88301 41.8041 6.06123 42.8597 8.60971C43.9153 11.1582 44.1915 13.9625 43.6533 16.6679C43.1152 19.3734 41.7869 21.8585 39.8363 23.809C37.8858 25.7595 35.4007 27.0878 32.6953 27.626C29.9898 28.1641 27.1855 27.8879 24.6371 26.8323C22.0886 25.7767 19.9103 23.9891 18.3778 21.6955C16.8453 19.4019 16.0273 16.7054 16.0273 13.947C16.0273 10.248 17.4968 6.70055 20.1123 4.08498C22.7279 1.46941 26.2754 0 29.9743 0Z" fill="#F68C33"/>
<path d="M74.9468 23.506L72.6138 21.1857H82.1485V44.0207H86.2946V17.027H72.6138L74.9468 14.694L72.0053 11.7651L64.6641 19.1063L72.0053 26.4475L74.9468 23.506Z" fill="#F68C33"/>
<path d="M38.9493 79.0787L41.2823 81.4117H31.7603V58.564H27.6016V85.5577H41.2823L38.9493 87.8907L41.8909 90.8322L49.2321 83.491L41.8909 76.1498L38.9493 79.0787Z" fill="#F68C33"/>
</svg>
