<svg width="110" height="99" viewBox="0 0 110 99" fill="none" xmlns="http://www.w3.org/2000/svg">
<path d="M82.3072 72.1364L80.2297 69.5972C73.3046 61.7487 63.3786 56.0932 60.0315 54.362L58.3002 57.2474C57.0306 59.325 54.376 60.3637 51.9522 59.7866H51.8368C48.9513 58.8633 47.2201 55.8624 47.9126 52.9769C48.4897 50.3223 49.5284 47.7831 50.9134 45.4748L47.9126 45.0131C45.835 44.6668 43.6421 45.1285 41.7954 46.1673L40.0641 47.0906C37.8712 48.2448 35.332 48.3602 33.139 47.4369L29.4456 45.9364L15.3646 67.6351L20.5584 71.0976L23.3285 68.3276C24.3672 67.2888 25.7523 66.7117 27.2527 66.7117C28.7531 66.7117 30.1382 67.2888 31.1769 68.3276C32.1003 69.2509 32.6774 70.4051 32.7928 71.7901C34.6395 71.3285 36.6016 71.7901 38.102 73.1751C39.1408 74.2139 39.7179 75.5989 39.7179 77.0994C39.7179 77.561 39.6025 78.0227 39.487 78.4844C40.7566 78.5998 42.0262 79.1769 42.8342 80.1002C44.2192 81.4853 44.6809 83.5628 44.2192 85.4095C45.4888 85.5249 46.7584 86.102 47.5663 87.0253C48.6051 88.0641 49.1822 89.4491 49.1822 90.9496C49.1822 92.2192 48.7205 93.4888 47.9126 94.4121L50.798 97.8746C52.2985 99.3751 54.8377 99.3751 56.3381 97.8746C57.0306 97.1821 57.4923 96.1434 57.4923 95.1046C57.4923 94.0658 57.146 93.1425 56.4535 92.45L55.2993 91.2958C54.7222 90.7187 54.7222 89.7954 55.2993 89.3337C55.8764 88.7566 56.7998 88.7566 57.2614 89.3337L58.4156 90.4879L59.339 91.4112C60.8394 92.9117 63.3786 92.9117 64.9945 91.4112L65.1099 91.2958C66.4949 89.7954 66.4949 87.3716 64.9945 85.8711L62.9169 83.2165C62.3399 82.6394 62.3399 81.7161 62.9169 81.2544C63.494 80.6773 64.4174 80.6773 64.8791 81.2544L68.3416 84.717C69.842 86.2174 72.4967 86.2174 73.9971 84.717C74.6896 84.0245 75.1513 82.9857 75.1513 81.9469C75.1513 80.9082 74.805 79.9848 74.1125 79.1769L70.4191 75.5989C70.1883 75.3681 69.9575 74.9064 69.9575 74.5602C69.9575 74.2139 70.0729 73.8677 70.4191 73.5214C70.9962 72.9443 71.9196 72.9443 72.3812 73.5214L76.8825 78.0227C77.6905 78.8306 78.8447 79.2923 80.1143 79.2923C81.153 79.2923 82.1918 78.8306 82.8843 78.1381C83.5768 77.4456 83.9231 76.4069 83.9231 75.4835C83.9231 75.0218 83.8076 74.4447 83.6922 73.9831C83.2306 73.2906 82.7689 72.7135 82.3072 72.1364Z" fill="#F68C33"/>
<path d="M65.8024 45.0131L60.724 43.2818C58.1848 42.4739 55.4148 43.3972 53.9143 45.5902L53.6835 45.9364C52.183 48.1294 51.1443 50.6686 50.5672 53.3232C50.2209 54.8236 51.1443 56.3241 52.6447 56.9011C53.7989 57.2474 55.1839 56.7857 55.8764 55.6315L58.3002 51.7073C58.5311 51.2456 58.9927 51.0148 59.4544 51.0148C59.6852 51.0148 59.9161 51.0148 60.0315 51.1302C60.8394 51.4765 78.1522 60.1328 86.116 72.7134L94.4261 67.9813L80.3451 45.7056C75.4975 46.8598 70.5345 46.6289 65.8024 45.0131Z" fill="#F68C33"/>
<path d="M45.7197 88.872C45.258 88.4103 44.5655 88.0641 43.7576 88.0641C43.0651 88.0641 42.3725 88.2949 41.7955 88.872L37.9867 92.6808C36.9479 93.7196 36.9479 95.4509 37.9867 96.4896C39.0254 97.5284 40.7567 97.5284 41.7955 96.4896L45.6043 92.6808C46.0659 92.2191 46.4122 91.5266 46.4122 90.7187C46.5276 90.1416 46.1813 89.4491 45.7197 88.872Z" fill="#F68C33"/>
<path d="M40.8721 82.0624C40.4104 81.6007 39.7179 81.2545 38.91 81.2545C38.102 81.2545 37.5249 81.4853 36.9479 82.0624L32.2157 86.7945C31.754 87.2562 31.4078 87.9487 31.4078 88.7566C31.4078 89.4492 31.6386 90.1417 32.2157 90.7188C33.2545 91.7575 34.9857 91.7575 36.0245 90.7188L40.7567 85.9866C41.9108 84.8324 41.9108 83.1012 40.8721 82.0624Z" fill="#F68C33"/>
<path d="M36.8325 77.0994C36.8325 76.4069 36.6016 75.7144 36.0245 75.1373C35.4475 74.5602 34.7549 74.3293 34.0624 74.3293C33.3699 74.3293 32.6774 74.5602 32.1003 75.1373L26.3294 80.9082C25.8677 81.3699 25.5215 82.0624 25.5215 82.8703C25.5215 83.6782 25.7523 84.2553 26.3294 84.8324C27.3682 85.8712 29.0994 85.8712 30.1382 84.8324L35.9091 79.0615C36.4862 78.4844 36.8325 77.7919 36.8325 77.0994Z" fill="#F68C33"/>
<path d="M29.0994 70.2897C28.6378 69.8281 27.9452 69.4818 27.1373 69.4818C26.4448 69.4818 25.7523 69.7126 25.1752 70.2897L20.4431 75.0219C19.9814 75.4836 19.6351 76.1761 19.6351 76.984C19.6351 77.6765 19.866 78.369 20.4431 78.9461C21.4818 79.9849 23.2131 79.9849 24.2519 78.9461L28.984 74.214C30.2536 73.0598 30.2536 71.3285 29.0994 70.2897Z" fill="#F68C33"/>
<path d="M27.1373 39.473L20.5585 35.318C19.4043 34.6255 17.9039 34.9717 17.2113 36.0105L0.360284 62.3259C-0.332225 63.48 0.0140298 64.9805 1.05279 65.673L7.63163 69.828C8.20872 70.1743 8.78582 70.2897 9.47833 70.1743C10.0554 70.0589 10.6325 69.7126 10.9788 69.1355L27.7144 42.8202C28.5223 41.666 28.2915 40.1656 27.1373 39.473ZM10.0554 63.48C9.36291 64.6342 7.74705 64.9805 6.59287 64.288C5.43869 63.5955 5.09243 61.9796 5.78494 60.8254C6.47745 59.6712 8.09331 59.325 9.24749 60.0175C10.5171 60.8254 10.8633 62.3259 10.0554 63.48Z" fill="#F68C33"/>
<path d="M109.315 62.3259L92.464 36.0105C92.1178 35.4334 91.5407 35.0872 90.9636 34.9717C90.3865 34.8563 89.694 34.9717 89.1169 35.318L82.538 39.4731C81.3839 40.1656 81.0376 41.666 81.8455 42.8202L98.5812 69.1355C99.2737 70.2897 100.774 70.636 101.928 69.8281L108.507 65.673C109.661 64.9805 110.008 63.3646 109.315 62.3259ZM102.967 64.288C101.813 64.9805 100.312 64.6342 99.5045 63.4801C98.812 62.3259 99.1583 60.8254 100.312 60.0175C101.467 59.2096 102.967 59.6713 103.775 60.8254C104.468 61.9796 104.121 63.4801 102.967 64.288Z" fill="#F68C33"/>
<path d="M54.8377 37.1647C65.1099 37.1647 73.42 28.8546 73.42 18.5823C73.42 8.31011 65.1099 0 54.8377 0C44.5655 0 36.2554 8.31011 36.2554 18.5823C36.2554 28.7391 44.5655 37.1647 54.8377 37.1647ZM46.5276 16.1586C47.3355 15.5815 48.3743 15.6969 49.0668 16.3894L52.6448 19.7365L60.4932 11.7727C61.3011 10.9647 62.5707 10.9647 63.3787 11.7727C64.0712 12.4652 64.1866 13.6194 63.6095 14.4273L54.9531 25.6229L54.8377 25.7383C53.9144 26.8925 52.2985 27.1233 51.1443 26.1999C50.9135 26.0845 50.7981 25.8537 50.5672 25.6229L45.9505 19.044C45.3734 18.0052 45.6042 16.7356 46.5276 16.1586Z" fill="#F68C33"/>
</svg>
