<svg width="91" height="99" viewBox="0 0 91 99" fill="none" xmlns="http://www.w3.org/2000/svg">
<path d="M25.7688 71.6969C21.8088 70.8632 19.2036 67.2158 19.6204 63.1516L21.0794 51.5842C21.913 44.4979 26.6025 38.6621 32.9594 36.1611C31.292 34.7021 29.9372 32.9305 28.8951 30.9505C28.2699 30.7421 27.5404 30.6379 26.8109 30.5337C24.8309 31.2632 22.7467 31.68 20.6625 31.68C18.5783 31.68 16.3899 31.2632 14.5141 30.5337C7.84462 31.159 2.32146 36.2653 1.59198 43.039L0.0288252 54.6063C-0.179596 56.0653 0.758299 57.5242 2.32146 57.8369C4.40567 58.2537 6.59409 58.5663 8.78251 58.879L10.3457 86.0779C10.4499 88.1621 12.2215 89.8295 14.4099 89.8295H26.7067C27.853 89.8295 28.8951 89.3084 29.6246 88.579L28.6867 72.2179C27.6446 72.1137 26.7067 71.9053 25.7688 71.6969Z" fill="#F68C33"/>
<path d="M20.5583 26.7821C22.8509 26.7821 25.1435 26.1568 27.0193 25.1147C26.8109 24.2811 26.8109 23.3432 26.8109 22.4053C26.8109 16.9863 29.2077 11.9842 33.0635 8.64947C31.1877 3.64737 26.2899 0 20.5583 0C13.1593 0 7.11511 6.04421 7.11511 13.4432C7.11511 20.8421 13.1593 26.7821 20.5583 26.7821Z" fill="#F68C33"/>
<path d="M90.0667 54.6063L88.712 43.039C87.8783 36.2653 82.4593 31.159 75.7899 30.5337C73.8099 31.2632 71.7257 31.68 69.6414 31.68C67.453 31.68 65.3688 31.2632 63.493 30.5337C62.7635 30.5337 62.0341 30.7421 61.4088 30.9505C60.3667 32.9305 59.012 34.7021 57.3446 36.0568C63.5972 38.6621 68.2867 44.3937 69.1204 51.5842L70.4751 63.1516C70.9962 67.2158 68.3909 70.8632 64.4309 71.6969C63.493 71.9053 62.5551 72.1137 61.513 72.3221L60.5751 88.6832C61.3046 89.4126 62.3467 89.9337 63.493 89.9337H75.7899C77.9783 89.9337 79.7499 88.2663 79.8541 86.1821L81.4172 58.9832C83.6057 58.6705 85.7941 58.3579 87.8783 57.9411C89.3372 57.5242 90.2751 56.1695 90.0667 54.6063Z" fill="#F68C33"/>
<path d="M63.0762 25.2189C65.0562 26.2611 67.2446 26.8863 69.5372 26.8863C76.9362 26.8863 82.9804 20.8421 82.9804 13.4432C82.9804 6.04421 76.9362 0 69.5372 0C63.8057 0 58.9078 3.64737 57.032 8.75368C60.8878 12.1926 63.2846 17.0905 63.2846 22.5095C63.2846 23.4474 63.2846 24.2811 63.0762 25.2189Z" fill="#F68C33"/>
<path d="M65.5773 63.6726L64.2226 52.1052C63.3889 45.3316 58.0741 40.2252 51.4047 39.6C49.4247 40.3294 47.3404 40.7463 45.152 40.7463C42.9636 40.7463 40.7752 40.3294 38.8994 39.6C32.3341 40.2252 26.9152 45.4358 26.0815 52.1052L24.7268 63.6726C24.5183 65.1316 25.4562 66.5905 27.0194 66.9031C29.1036 67.4242 31.292 67.7368 33.4804 68.0495L35.0436 95.1442C35.1478 97.2284 36.9194 99 39.1078 99H51.4047C53.4889 99 55.3647 97.3326 55.4689 95.1442L57.032 68.0495C59.2204 67.7368 61.4089 67.4242 63.4931 66.9031C64.7436 66.6947 65.7857 65.2358 65.5773 63.6726Z" fill="#F68C33"/>
<path d="M45.0478 35.9527C52.4722 35.9527 58.4909 29.934 58.4909 22.5095C58.4909 15.0851 52.4722 9.06635 45.0478 9.06635C37.6233 9.06635 31.6046 15.0851 31.6046 22.5095C31.6046 29.934 37.6233 35.9527 45.0478 35.9527Z" fill="#F68C33"/>
</svg>
