<svg width="74" height="99" viewBox="0 0 74 99" fill="none" xmlns="http://www.w3.org/2000/svg">
<path d="M65.7467 50.5422L72.8675 46.5174C73.4867 46.2078 73.6931 45.279 73.2803 44.6598L68.4299 38.055C68.1203 37.6422 68.1203 37.023 68.4299 36.6102L73.1771 29.9022C73.5899 29.283 73.3835 28.4574 72.7643 28.1478L65.5403 24.3294C65.0243 24.123 64.8179 23.607 64.9211 22.9878L66.2627 14.9382C66.3659 14.2158 65.8499 13.4934 65.1275 13.4934L56.9747 13.1838C56.4587 13.1838 55.9427 12.771 55.8395 12.255L53.5691 4.4118C53.3627 3.6894 52.5371 3.2766 51.9179 3.5862L44.3843 6.7854C43.8683 6.9918 43.3523 6.8886 42.9395 6.4758L37.47 0.387C36.9539 -0.129 36.1283 -0.129 35.6124 0.387L30.246 6.579C29.9364 6.9918 29.3172 7.095 28.8011 6.8886L21.2676 3.7926C20.5452 3.483 19.8228 3.8958 19.6164 4.6182L17.4492 12.5646C17.346 13.0806 16.83 13.3902 16.314 13.4934L8.16116 14.0094C7.43876 14.0094 6.92276 14.7318 7.02596 15.4542L8.47076 23.5038C8.57396 24.0198 8.36756 24.5358 7.85156 24.8454L0.627562 28.6638C0.00836268 28.9734 -0.198037 29.9022 0.214763 30.5214L5.06516 37.1262C5.37476 37.539 5.37476 38.1582 5.06516 38.571L0.317962 45.279C-0.0948375 45.8982 0.111563 46.7238 0.730763 47.0334L7.95476 50.8518C8.47076 51.0582 8.67716 51.5742 8.57396 52.1934L7.23236 60.243C7.12916 60.9654 7.64516 61.6878 8.36756 61.6878L16.5204 61.9974C17.0364 61.9974 17.5524 62.4102 17.6556 62.9262L19.926 70.7694C20.1324 71.4918 20.958 71.9046 21.5772 71.595L29.1107 68.3958C29.6267 68.1894 30.1427 68.2926 30.5555 68.7054L36.0252 74.7942C36.5411 75.3102 37.3667 75.3102 37.8827 74.7942L43.2491 68.6022C43.5587 68.1894 44.1779 68.0862 44.6939 68.2926L52.2275 71.3886C52.9499 71.6982 53.6723 71.2854 53.8787 70.563L56.0459 62.6166C56.1491 62.1006 56.6651 61.791 57.1811 61.6878L65.3339 61.1718C66.0563 61.1718 66.5723 60.4494 66.4691 59.727L65.0243 51.6774C65.0243 51.2646 65.2307 50.7486 65.7467 50.5422ZM36.7476 59.8302C24.4668 59.8302 14.5596 49.8198 14.5596 37.6422C14.5596 25.3614 24.57 15.4542 36.7476 15.4542C49.0283 15.4542 58.9355 25.4646 58.9355 37.6422C58.9355 49.923 49.0283 59.8302 36.7476 59.8302ZM47.1707 98.3238L40.6691 78.1998C40.7723 78.0966 40.9787 77.9934 41.0819 77.8902L45.1067 74.175L50.3699 75.723C50.9891 75.9294 51.6083 76.0326 52.2275 76.0326C53.9819 76.0326 55.6331 75.3102 56.7683 74.175L62.9603 93.267C63.1667 93.9894 62.5475 94.6086 61.8251 94.4022L54.4979 92.235C54.1883 92.1318 53.7755 92.235 53.5691 92.5446L48.8219 98.6334C48.3059 99.2526 47.3771 99.0462 47.1707 98.3238ZM10.5348 93.267L16.7268 74.175C17.862 75.4134 19.5132 76.0326 21.2676 76.0326C21.8868 76.0326 22.506 75.9294 23.1252 75.723L28.3884 74.175L32.4131 77.8902C32.5163 77.9934 32.7228 78.0966 32.826 78.1998L26.3244 98.3238C26.118 99.0462 25.1892 99.1494 24.7764 98.6334L20.0292 92.5446C19.8228 92.235 19.41 92.1318 19.1004 92.235L11.7732 94.4022C10.9476 94.6086 10.3284 93.9894 10.5348 93.267ZM50.8859 35.1654L44.4875 40.5318L46.4483 48.6846C46.8611 50.2326 45.1067 51.471 43.7651 50.6454L36.7476 46.2078L29.6267 50.6454C28.2851 51.471 26.634 50.2326 26.9436 48.6846L28.9044 40.5318L22.506 35.1654C21.2676 34.1334 21.99 32.1726 23.538 32.0694L31.8971 31.4502L35.0964 23.7102C35.7156 22.2654 37.7795 22.2654 38.3987 23.7102L41.5979 31.4502L49.9571 32.0694C51.5051 32.1726 52.1243 34.1334 50.8859 35.1654Z" fill="#F68C33"/>
</svg>
